<svg width="17" height="11" viewBox="0 0 17 11" fill="none" xmlns="http://www.w3.org/2000/svg">
    <path fill-rule="evenodd" clip-rule="evenodd" d="M16.7917 5.76726C16.8674 5.58434 16.8873 5.38305 16.8486 5.18885C16.81 4.99465 16.7147 4.81627 16.5747 4.67627L12.5747 0.678265C12.3852 0.50061 12.1341 0.40363 11.8744 0.407847C11.6147 0.412064 11.3668 0.517146 11.1833 0.700858C10.9997 0.884571 10.8948 1.1325 10.8907 1.39219C10.8867 1.65187 10.9839 1.90294 11.1617 2.09226L13.4547 4.38526H1.86865C1.60344 4.38526 1.34908 4.49062 1.16155 4.67816C0.974009 4.86569 0.868652 5.12005 0.868652 5.38526C0.868652 5.65048 0.974009 5.90484 1.16155 6.09237C1.34908 6.27991 1.60344 6.38526 1.86865 6.38526H13.4547L11.1617 8.67826C10.9741 8.86577 10.8688 9.12009 10.8688 9.38526C10.8688 9.65044 10.9741 9.90476 11.1617 10.0923C11.3492 10.2798 11.6035 10.3851 11.8687 10.3851C12.1338 10.3851 12.3881 10.2798 12.5757 10.0923L16.5747 6.09226C16.6677 5.99926 16.7414 5.88881 16.7917 5.76726Z" fill="white"/>
</svg>
