<svg width="16" height="10" viewBox="0 0 16 10" fill="none" xmlns="http://www.w3.org/2000/svg">
    <path fill-rule="evenodd" clip-rule="evenodd" d="M15.923 5.38201C15.9988 5.19909 16.0186 4.99779 15.98 4.80359C15.9414 4.60939 15.846 4.43101 15.706 4.29101L11.706 0.293011C11.5166 0.115356 11.2654 0.0183761 11.0057 0.0225929C10.746 0.0268097 10.4982 0.131892 10.3146 0.315605C10.131 0.499317 10.0261 0.747247 10.0221 1.00693C10.0181 1.26662 10.1152 1.51769 10.293 1.70701L12.586 4.00001H1C0.734784 4.00001 0.48043 4.10537 0.292893 4.2929C0.105357 4.48044 0 4.73479 0 5.00001C0 5.26523 0.105357 5.51958 0.292893 5.70712C0.48043 5.89465 0.734784 6.00001 1 6.00001H12.586L10.293 8.29301C10.1055 8.48052 10.0002 8.73483 10.0002 9.00001C10.0002 9.26519 10.1055 9.5195 10.293 9.70701C10.4805 9.89452 10.7348 9.99986 11 9.99986C11.2652 9.99986 11.5195 9.89452 11.707 9.70701L15.706 5.70701C15.799 5.614 15.8727 5.50356 15.923 5.38201Z" fill="#007AB3"/>
</svg>
