<svg width="20" height="14" viewBox="0 0 20 14" fill="none" xmlns="http://www.w3.org/2000/svg">
    <path
        d="M6.61132 13.9016C6.50222 13.8979 6.39501 13.872 6.29628 13.8254C6.19755 13.7789 6.10937 13.7126 6.03715 13.6308L0.620484 8.21409C0.517208 8.14713 0.430494 8.05758 0.36689 7.9522C0.303287 7.84683 0.264455 7.72838 0.253327 7.6058C0.2422 7.48322 0.259067 7.35971 0.302656 7.2446C0.346245 7.1295 0.415416 7.0258 0.504946 6.94133C0.594476 6.85687 0.702026 6.79385 0.819475 6.75704C0.936924 6.72022 1.0612 6.71057 1.18293 6.72882C1.30465 6.74706 1.42064 6.79272 1.52214 6.86235C1.62363 6.93198 1.70798 7.02376 1.76882 7.13075L6.61132 11.9408L17.9538 0.630755C18.1065 0.531748 18.288 0.486875 18.4693 0.503328C18.6505 0.519781 18.821 0.596608 18.9534 0.721494C19.0858 0.84638 19.1724 1.01209 19.1994 1.19207C19.2263 1.37205 19.1921 1.55588 19.1022 1.71409L7.18548 13.6308C7.11326 13.7126 7.02508 13.7789 6.92635 13.8254C6.82762 13.872 6.72042 13.8979 6.61132 13.9016Z"
        fill="green" />
</svg>