<svg width="16" height="12" viewBox="0 0 16 12" fill="none" xmlns="http://www.w3.org/2000/svg">
    <path fill-rule="evenodd" clip-rule="evenodd" d="M0.770649 6.48343C0.740241 6.45035 0.703457 6.42375 0.662509 6.40524C0.62156 6.38674 0.577293 6.3767 0.532367 6.37574C0.487441 6.37478 0.442785 6.38291 0.401082 6.39964C0.359378 6.41638 0.32149 6.44137 0.289692 6.47313C0.257895 6.50488 0.232847 6.54273 0.216052 6.58441C0.199257 6.62609 0.191062 6.67074 0.191961 6.71566C0.19286 6.76059 0.202834 6.80487 0.221282 6.84585C0.239731 6.88682 0.266274 6.92364 0.299315 6.9541L4.96598 11.6208C5.02834 11.6833 5.11298 11.7186 5.20132 11.7188H5.20732C5.25196 11.7179 5.29597 11.7081 5.33674 11.6899C5.37751 11.6716 5.41421 11.6454 5.44465 11.6128L15.4453 0.946097C15.5032 0.881133 15.5333 0.796137 15.5293 0.709248C15.5254 0.62236 15.4876 0.540463 15.4241 0.481039C15.3606 0.421614 15.2764 0.389369 15.1894 0.391186C15.1024 0.393003 15.0196 0.428738 14.9586 0.490763L5.19398 10.9068L0.770649 6.48276V6.48343Z" fill="#F86200"/>
</svg>
