<svg width="30" height="30" viewBox="0 0 30 30" fill="none" xmlns="http://www.w3.org/2000/svg">
<g id="ic-play">
<g id="Group">
<g id="Group_2">
<path id="Vector" d="M15 5.1223C20.4468 5.1223 24.8777 9.55315 24.8777 15C24.8777 20.4468 20.4468 24.8777 15 24.8777C9.55314 24.8777 5.12228 20.4468 5.12228 15C5.12228 9.55315 9.55314 5.1223 15 5.1223ZM15 3.7112C8.76645 3.7112 3.71118 8.76646 3.71118 15C3.71118 21.2335 8.76645 26.2888 15 26.2888C21.2335 26.2888 26.2888 21.2335 26.2888 15C26.2888 8.76646 21.2335 3.7112 15 3.7112Z" fill="white"/>
</g>
<path id="Vector_2" d="M13.9381 10.7667L12.8833 11.8215L16.0653 15L12.8833 18.1785L13.9381 19.2333L18.1749 15L13.9381 10.7667Z" fill="white"/>
</g>
</g>
</svg>
