<svg width="24" height="25" viewBox="0 0 24 25" fill="none" xmlns="http://www.w3.org/2000/svg">
    <path fill-rule="evenodd" clip-rule="evenodd" d="M19.7071 9.06371C19.6143 8.97076 19.5041 8.89703 19.3828 8.84671C19.2615 8.7964 19.1314 8.77051 19.0001 8.77051C18.8688 8.77051 18.7387 8.7964 18.6174 8.84671C18.4961 8.89703 18.3859 8.97076 18.2931 9.06371L12.0001 15.3567L5.70709 9.06371C5.51958 8.8762 5.26527 8.77086 5.00009 8.77086C4.73492 8.77086 4.4806 8.8762 4.29309 9.06371C4.10559 9.25122 4.00024 9.50553 4.00024 9.77071C4.00024 10.0359 4.10559 10.2902 4.29309 10.4777L11.2931 17.4777C11.3857 17.5709 11.4959 17.6448 11.6172 17.6953C11.7386 17.7458 11.8687 17.7717 12.0001 17.7717C12.1315 17.7717 12.2616 17.7458 12.3829 17.6953C12.5043 17.6448 12.6144 17.5709 12.7071 17.4777L19.7071 10.4777C19.8 10.3849 19.8738 10.2747 19.9241 10.1534C19.9744 10.0321 20.0003 9.90204 20.0003 9.77071C20.0003 9.63938 19.9744 9.50933 19.9241 9.38802C19.8738 9.2667 19.8 9.1565 19.7071 9.06371Z" fill="#122B54"/>
</svg>
