<svg width="167" height="49" viewBox="0 0 167 49" fill="none" xmlns="http://www.w3.org/2000/svg">
<path fill-rule="evenodd" clip-rule="evenodd" d="M52.1385 42.5612C51.3588 42.5612 50.6476 42.5142 50.0039 42.4206C49.3601 42.3261 48.7844 42.2146 48.2762 42.0845C47.7684 41.9545 47.339 41.8204 46.9892 41.6814C46.6385 41.5429 46.3714 41.4283 46.1875 41.3393L46.9496 39.1226C47.2035 39.2571 47.6129 39.4182 48.1779 39.6062C48.7428 39.7943 49.3489 39.9424 49.9975 40.0499C50.6452 40.1569 51.2497 40.2109 51.8103 40.2109C52.9486 40.2109 53.8354 40.0429 54.4703 39.7073C55.1053 39.3712 55.5083 38.957 55.6785 38.4649C55.8497 37.9722 55.9349 37.5021 55.9349 37.0539C55.9349 36.3017 55.6942 35.695 55.2124 35.2344C54.7306 34.7732 54.1504 34.4056 53.472 34.1325C52.793 33.8599 52.1782 33.6153 51.6264 33.4008C51.1006 33.2127 50.6036 33.0156 50.135 32.8096C49.6668 32.604 49.1938 32.3374 48.7164 32.0103C48.239 31.6837 47.8364 31.2941 47.5077 30.842C47.1795 30.3898 46.9628 29.9377 46.8576 29.485C46.7525 29.0329 46.7001 28.5562 46.7001 28.0546C46.7001 27.2488 46.8488 26.5191 47.1467 25.8654C47.4441 25.2117 47.8692 24.6565 48.421 24.1998C48.9727 23.7432 49.6448 23.3916 50.4373 23.1455C51.2302 22.8989 52.1209 22.7759 53.1105 22.7759C53.8638 22.7759 54.5642 22.8229 55.2124 22.9174C55.8605 23.011 56.3971 23.1185 56.8217 23.2395C57.2463 23.3601 57.5505 23.4431 57.7345 23.4876V25.9194C57.2879 25.7493 56.806 25.5988 56.2895 25.4692C55.7729 25.3392 55.2407 25.2387 54.6939 25.1671C54.146 25.0951 53.6099 25.0596 53.0846 25.0596C51.9106 25.0596 50.9978 25.3057 50.3453 25.7978C49.6928 26.291 49.3665 26.9982 49.3665 27.9205C49.3665 28.3862 49.4697 28.7798 49.6757 29.1024C49.8811 29.4245 50.1721 29.7091 50.5488 29.9557C50.9254 30.2017 51.372 30.4278 51.8891 30.6334C52.4056 30.8395 52.9745 31.0545 53.5967 31.2781C54.2796 31.5382 54.9365 31.8113 55.567 32.0978C56.1975 32.3844 56.7517 32.7401 57.2287 33.1657C57.7061 33.5908 58.0896 34.1125 58.3782 34.7307C58.6673 35.3484 58.8121 36.1136 58.8121 37.0274C58.8121 37.9137 58.6609 38.702 58.3586 39.3912C58.0568 40.0809 57.6185 40.6606 57.0447 41.1312C56.4715 41.6009 55.7729 41.957 54.9497 42.1986C54.1265 42.4406 53.1892 42.5612 52.1385 42.5612Z" fill="white"/>
<mask id="mask0_579_9941" style="mask-type:alpha" maskUnits="userSpaceOnUse" x="62" y="28" width="13" height="20">
<path d="M62.2275 47.7865H74.1423V28.0278H62.2275V47.7865Z" fill="white"/>
</mask>
<g mask="url(#mask0_579_9941)">
<path fill-rule="evenodd" clip-rule="evenodd" d="M67.7447 40.3318C68.3752 40.3318 68.9289 40.2067 69.4064 39.9556C69.8838 39.7051 70.236 39.3915 70.4639 39.0153C70.6914 38.6392 70.8626 38.2681 70.976 37.901C71.0988 37.4979 71.1908 37.0637 71.2519 36.5976C71.3131 36.1324 71.3439 35.6443 71.3439 35.1336C71.3439 34.0322 71.2128 33.1035 70.9501 32.3467C70.6874 31.5895 70.302 31.0573 69.7938 30.7482C69.286 30.4396 68.7343 30.2846 68.139 30.2846C67.6131 30.2846 67.1445 30.4126 66.7331 30.6677C66.3213 30.9228 65.9754 31.2784 65.6956 31.7355C65.4149 32.1922 65.2031 32.7383 65.0583 33.374C64.914 34.0097 64.8416 34.704 64.8416 35.4562V39.0293C65.2358 39.432 65.6692 39.7501 66.1422 39.9826C66.6148 40.2157 67.1489 40.3318 67.7447 40.3318ZM62.2275 47.7866V28.3104H64.7232L64.776 30.3386C65.0123 29.8729 65.3449 29.4543 65.7744 29.0827C66.2034 28.7111 66.6827 28.4425 67.2125 28.2764C67.7427 28.1109 68.2877 28.0278 68.8482 28.0278C70.1093 28.0278 71.1556 28.3659 71.9876 29.0427C72.8197 29.7184 73.3866 30.6097 73.6889 31.715C73.9912 32.8209 74.1423 33.9432 74.1423 35.0801C74.1423 36.2535 74.0152 37.3008 73.7613 38.2231C73.5069 39.1454 73.1327 39.9226 72.6382 40.5533C72.1432 41.185 71.5303 41.6662 70.799 41.9973C70.0677 42.3284 69.2293 42.4944 68.2833 42.4944C67.5124 42.4944 66.8471 42.3939 66.2865 42.1924C65.726 41.9908 65.2441 41.7197 64.8416 41.3796V47.7866H62.2275Z" fill="white"/>
</g>
<path fill-rule="evenodd" clip-rule="evenodd" d="M81.9189 40.4393C82.3831 40.4393 82.8493 40.3638 83.3179 40.2112C83.7865 40.0587 84.1563 39.8866 84.4278 39.694C84.6993 39.5015 84.914 39.3204 85.0715 39.1499V35.3757H84.0996C83.3375 35.3757 82.6761 35.4227 82.1161 35.5167C81.5555 35.6107 81.0893 35.7698 80.7166 35.9934C80.3448 36.2174 80.0665 36.5085 79.8826 36.8661C79.6987 37.2248 79.6067 37.6634 79.6067 38.1826C79.6067 38.6392 79.6987 39.0533 79.8826 39.4255C80.0665 39.7971 80.3424 40.0587 80.7102 40.2112C81.0781 40.3638 81.4807 40.4393 81.9189 40.4393ZM81.1965 42.4944C80.6271 42.4944 80.0861 42.4184 79.5744 42.2659C79.0618 42.1143 78.6152 41.8697 78.2341 41.5341C77.8531 41.1985 77.5513 40.7639 77.3277 40.2312C77.1047 39.6985 76.9927 39.0518 76.9927 38.2901C76.9927 37.2338 77.2294 36.363 77.702 35.6778C78.175 34.9925 78.8715 34.4624 79.7906 34.0863C80.3077 33.8802 80.8878 33.7281 81.5315 33.6296C82.1753 33.5306 82.8953 33.4726 83.6921 33.4546C83.7273 33.4546 83.8129 33.4525 83.9484 33.448C84.0844 33.4435 84.2263 33.4415 84.3755 33.4415C84.5242 33.4415 84.6665 33.439 84.8025 33.4345C84.938 33.43 85.0275 33.4275 85.0715 33.4275V32.6758C85.0715 31.9771 84.9468 31.4379 84.6973 31.0573C84.4474 30.6762 84.0644 30.4171 83.5478 30.2785C83.0308 30.139 82.4795 30.07 81.8925 30.07C81.1568 30.07 80.4784 30.146 79.8567 30.2985C79.2345 30.4506 78.6392 30.6296 78.0698 30.8357V28.6595C78.8055 28.463 79.3396 28.3329 79.6727 28.2699C80.0054 28.2074 80.43 28.1514 80.947 28.1023C81.4635 28.0528 81.9493 28.0283 82.4052 28.0283C83.3067 28.0283 84.0888 28.1178 84.7502 28.2969C85.411 28.476 85.9559 28.7536 86.3854 29.1297C86.8144 29.5058 87.1318 29.9849 87.3378 30.5671C87.5437 31.1493 87.6464 31.843 87.6464 32.6488V42.2258H85.1767L85.1244 41.044C84.8617 41.3126 84.5266 41.5561 84.1196 41.7762C83.7122 41.9953 83.2392 42.1698 82.7006 42.2999C82.162 42.4294 81.6607 42.4944 81.1965 42.4944Z" fill="white"/>
<path fill-rule="evenodd" clip-rule="evenodd" d="M91.9814 42.2259V28.3105H94.4776L94.5299 30.9428C94.8362 30.3071 95.2084 29.779 95.6467 29.3578C96.0845 28.9372 96.5399 28.6441 97.0129 28.4786C97.4854 28.3125 97.9408 28.23 98.3791 28.23C98.8257 28.23 99.1671 28.2565 99.4034 28.3105V30.8358C99.1935 30.7818 98.8824 30.7548 98.471 30.7548C97.8141 30.7548 97.2447 30.8783 96.7629 31.1244C96.2816 31.3705 95.8785 31.6866 95.5547 32.0712C95.2304 32.4563 94.9897 32.8815 94.8322 33.3471C94.6742 33.8133 94.5955 34.2604 94.5955 34.6905V42.2259H91.9814Z" fill="white"/>
<path fill-rule="evenodd" clip-rule="evenodd" d="M101.965 42.2257V22.0103H104.579V33.696L109.663 28.3103H112.803L107.076 34.3277C107.636 34.8293 108.201 35.3935 108.77 36.0202C109.339 36.6469 109.893 37.3026 110.432 37.9879C110.97 38.6726 111.492 39.3758 111.995 40.0965C112.499 40.8178 112.974 41.5275 113.42 42.2257H110.149C109.598 41.4199 108.982 40.5732 108.304 39.6869C107.625 38.8001 106.968 37.9944 106.333 37.2691C105.698 36.5439 105.114 35.9127 104.579 35.3755V42.2257H101.965Z" fill="white"/>
<path fill-rule="evenodd" clip-rule="evenodd" d="M119.607 40.4393C120.072 40.4393 120.538 40.3638 121.006 40.2112C121.475 40.0587 121.845 39.8866 122.116 39.694C122.388 39.5015 122.603 39.3204 122.76 39.1499V35.3757H121.788C121.026 35.3757 120.365 35.4227 119.805 35.5167C119.244 35.6107 118.778 35.7698 118.405 35.9934C118.033 36.2174 117.755 36.5085 117.571 36.8661C117.387 37.2248 117.295 37.6634 117.295 38.1826C117.295 38.6392 117.387 39.0533 117.571 39.4255C117.755 39.7971 118.031 40.0587 118.399 40.2112C118.767 40.3638 119.169 40.4393 119.607 40.4393ZM118.885 42.4944C118.316 42.4944 117.775 42.4184 117.263 42.2659C116.75 42.1143 116.304 41.8697 115.923 41.5341C115.542 41.1985 115.24 40.7639 115.016 40.2312C114.793 39.6985 114.681 39.0518 114.681 38.2901C114.681 37.2338 114.918 36.363 115.39 35.6778C115.863 34.9925 116.56 34.4624 117.479 34.0863C117.996 33.8802 118.576 33.7281 119.22 33.6296C119.864 33.5306 120.584 33.4726 121.381 33.4546C121.416 33.4546 121.501 33.4525 121.637 33.448C121.773 33.4435 121.915 33.4415 122.064 33.4415C122.213 33.4415 122.355 33.439 122.491 33.4345C122.626 33.43 122.716 33.4275 122.76 33.4275V32.6758C122.76 31.9771 122.635 31.4379 122.386 31.0573C122.136 30.6762 121.753 30.4171 121.236 30.2785C120.719 30.139 120.168 30.07 119.581 30.07C118.845 30.07 118.167 30.146 117.545 30.2985C116.923 30.4506 116.328 30.6296 115.758 30.8357V28.6595C116.494 28.463 117.028 28.3329 117.361 28.2699C117.694 28.2074 118.118 28.1514 118.635 28.1023C119.152 28.0528 119.638 28.0283 120.094 28.0283C120.995 28.0283 121.777 28.1178 122.439 28.2969C123.099 28.476 123.644 28.7536 124.074 29.1297C124.503 29.5058 124.82 29.9849 125.026 30.5671C125.232 31.1493 125.335 31.843 125.335 32.6488V42.2258H122.865L122.813 41.044C122.55 41.3126 122.215 41.5561 121.808 41.7762C121.401 41.9953 120.928 42.1698 120.389 42.2999C119.851 42.4294 119.349 42.4944 118.885 42.4944Z" fill="white"/>
<path fill-rule="evenodd" clip-rule="evenodd" d="M133.466 42.4944C132.853 42.4944 132.29 42.4609 131.778 42.3939C131.265 42.3264 130.806 42.2434 130.399 42.1453C129.992 42.0463 129.639 41.9433 129.341 41.8362C129.043 41.7287 128.803 41.6302 128.619 41.5406L129.315 39.5255C129.77 39.7136 130.182 39.8636 130.55 39.9761C130.918 40.0877 131.345 40.1797 131.831 40.2512C132.317 40.3228 132.805 40.3583 133.295 40.3583C134.083 40.3583 134.712 40.2667 135.18 40.0837C135.649 39.9001 135.955 39.6555 136.1 39.3514C136.245 39.0468 136.317 38.7467 136.317 38.4512C136.317 37.9675 136.135 37.5804 135.772 37.2898C135.408 36.9987 134.951 36.7636 134.399 36.5846C133.847 36.405 133.339 36.2309 132.875 36.0604C132.323 35.8723 131.813 35.6753 131.345 35.4692C130.876 35.2636 130.469 35.0126 130.123 34.717C129.777 34.4214 129.507 34.0638 129.315 33.6426C129.122 33.222 129.026 32.7073 129.026 32.0981C129.026 31.4444 129.146 30.8622 129.388 30.3521C129.628 29.8414 129.967 29.4163 130.406 29.0757C130.843 28.7356 131.373 28.476 131.995 28.2964C132.617 28.1179 133.304 28.0278 134.057 28.0278C134.951 28.0278 135.726 28.0818 136.382 28.1889C137.039 28.2964 137.617 28.4265 138.117 28.579V30.7817C137.547 30.5846 136.945 30.4301 136.31 30.3181C135.675 30.2065 134.977 30.15 134.215 30.15C133.313 30.15 132.647 30.2936 132.218 30.5801C131.789 30.8667 131.575 31.3009 131.575 31.8831C131.575 32.1787 131.651 32.4292 131.805 32.6353C131.958 32.8414 132.174 33.0244 132.455 33.186C132.735 33.347 133.079 33.4971 133.486 33.6361C133.893 33.7747 134.351 33.9247 134.859 34.0858C135.909 34.4174 136.735 34.7665 137.335 35.1336C137.935 35.5012 138.359 35.9579 138.609 36.5035C138.859 37.0497 138.983 37.6454 138.983 38.2901C138.983 38.9978 138.852 39.6155 138.59 40.1437C138.327 40.6719 137.954 41.1105 137.473 41.4601C136.991 41.8092 136.411 42.0688 135.732 42.2389C135.053 42.4089 134.298 42.4944 133.466 42.4944Z" fill="white"/>
<path fill-rule="evenodd" clip-rule="evenodd" d="M146.09 42.4944C145.477 42.4944 144.914 42.4609 144.402 42.3939C143.889 42.3264 143.43 42.2434 143.023 42.1453C142.616 42.0463 142.263 41.9433 141.965 41.8362C141.667 41.7287 141.427 41.6302 141.243 41.5406L141.939 39.5255C142.394 39.7136 142.806 39.8636 143.174 39.9761C143.542 40.0877 143.969 40.1797 144.455 40.2512C144.941 40.3228 145.429 40.3583 145.919 40.3583C146.707 40.3583 147.336 40.2667 147.804 40.0837C148.273 39.9001 148.579 39.6555 148.724 39.3514C148.869 39.0468 148.941 38.7467 148.941 38.4512C148.941 37.9675 148.759 37.5804 148.396 37.2898C148.032 36.9987 147.575 36.7636 147.023 36.5846C146.471 36.405 145.963 36.2309 145.499 36.0604C144.948 35.8723 144.437 35.6753 143.969 35.4692C143.5 35.2636 143.093 35.0126 142.747 34.717C142.401 34.4214 142.131 34.0638 141.939 33.6426C141.747 33.222 141.65 32.7073 141.65 32.0981C141.65 31.4444 141.77 30.8622 142.012 30.3521C142.252 29.8414 142.591 29.4163 143.03 29.0757C143.467 28.7356 143.997 28.476 144.619 28.2964C145.241 28.1179 145.928 28.0278 146.681 28.0278C147.575 28.0278 148.35 28.0818 149.007 28.1889C149.663 28.2964 150.241 28.4265 150.741 28.579V30.7817C150.171 30.5846 149.569 30.4301 148.934 30.3181C148.299 30.2065 147.601 30.15 146.839 30.15C145.937 30.15 145.271 30.2936 144.842 30.5801C144.413 30.8667 144.199 31.3009 144.199 31.8831C144.199 32.1787 144.275 32.4292 144.429 32.6353C144.582 32.8414 144.798 33.0244 145.079 33.186C145.359 33.347 145.703 33.4971 146.11 33.6361C146.517 33.7747 146.975 33.9247 147.483 34.0858C148.534 34.4174 149.359 34.7665 149.959 35.1336C150.559 35.5012 150.983 35.9579 151.233 36.5035C151.483 37.0497 151.607 37.6454 151.607 38.2901C151.607 38.9978 151.476 39.6155 151.214 40.1437C150.951 40.6719 150.578 41.1105 150.097 41.4601C149.615 41.8092 149.035 42.0688 148.356 42.2389C147.677 42.4089 146.922 42.4944 146.09 42.4944Z" fill="white"/>
<mask id="mask1_579_9941" style="mask-type:alpha" maskUnits="userSpaceOnUse" x="154" y="27" width="13" height="16">
<path d="M166.018 42.5613V27.9741H154.511V42.5613H166.018Z" fill="white"/>
</mask>
<g mask="url(#mask1_579_9941)">
<path fill-rule="evenodd" clip-rule="evenodd" d="M163.273 34.1661H157.23C157.309 32.8322 157.615 31.7933 158.15 31.0501C158.684 30.3069 159.459 29.9352 160.475 29.9352C161.438 29.9352 162.145 30.2488 162.596 30.8755C163.047 31.5022 163.273 32.3885 163.273 33.5349V34.1661ZM166.019 34.4617C166.019 32.3755 165.559 30.7725 164.639 29.6532C163.72 28.5338 162.353 27.9741 160.541 27.9741C159.569 27.9741 158.706 28.1512 157.953 28.5048C157.199 28.8584 156.569 29.3576 156.061 30.0023C155.553 30.647 155.168 31.4192 154.905 32.3195C154.642 33.2188 154.511 34.2111 154.511 35.2945C154.511 36.4053 154.656 37.4076 154.945 38.3029C155.233 39.1992 155.656 39.9619 156.212 40.5936C156.768 41.2243 157.449 41.7105 158.255 42.0511C159.06 42.3907 159.98 42.5613 161.014 42.5613C161.889 42.5613 162.658 42.5188 163.319 42.4332C163.98 42.3482 164.595 42.2167 165.165 42.0371L164.652 39.9955C164.223 40.121 163.724 40.226 163.155 40.3111C162.585 40.3966 161.999 40.4391 161.395 40.4391C160.09 40.4391 159.104 40.065 158.439 39.3172C157.773 38.57 157.388 37.4927 157.283 36.0872H165.966C166.001 35.6216 166.019 35.0794 166.019 34.4617Z" fill="white"/>
</g>
<path fill-rule="evenodd" clip-rule="evenodd" d="M12.6443 9.80657C13.1105 10.2927 13.6618 10.6728 14.2987 10.9479C14.9355 11.2235 15.6125 11.3606 16.3301 11.3606C17.0472 11.3606 17.7198 11.2235 18.3479 10.9479C18.9754 10.6728 19.5267 10.2927 20.0022 9.80657C20.4771 9.32091 20.8499 8.75673 21.1189 8.11453C21.388 7.47332 21.5225 6.7856 21.5225 6.05137C21.5225 5.31814 21.388 4.63042 21.1189 3.98821C20.8499 3.34701 20.4771 2.78283 20.0022 2.29667C19.5267 1.81102 18.9754 1.4304 18.3479 1.15481C17.7198 0.87972 17.0472 0.742676 16.3301 0.742676C15.6125 0.742676 14.9355 0.87972 14.2987 1.15481C13.6618 1.4304 13.1105 1.81102 12.6443 2.29667C12.1777 2.78283 11.8054 3.34701 11.5276 3.98821C11.2493 4.63042 11.1108 5.31814 11.1108 6.05137C11.1108 6.7856 11.2493 7.47332 11.5276 8.11453C11.8054 8.75673 12.1777 9.32091 12.6443 9.80657Z" fill="white"/>
<path fill-rule="evenodd" clip-rule="evenodd" d="M31.961 22.0065V19.8883C31.961 19.1551 31.8264 18.4673 31.5574 17.8251C31.2884 17.1834 30.9205 16.6193 30.4544 16.1336C29.9877 15.6474 29.4359 15.2668 28.8 14.9917C28.1627 14.7166 27.4857 14.5791 26.7686 14.5791H5.91844C5.20085 14.5791 4.52826 14.7166 3.90068 14.9917C3.27261 15.2668 2.72133 15.6474 2.24587 16.1336C1.77091 16.6193 1.39866 17.1834 1.12963 17.8251C0.860591 18.4673 0.726074 19.1551 0.726074 19.8883V31.607H24.6432V34.798H0.726074V36.9162C0.726074 37.65 0.860591 38.3377 1.12963 38.9794C1.39866 39.6216 1.77091 40.1858 2.24587 40.6709C2.72133 41.1571 3.27261 41.5377 3.90068 41.8128C4.52826 42.0879 5.20085 42.2254 5.91844 42.2254H26.7686C27.4857 42.2254 28.1627 42.0879 28.8 41.8128C29.4359 41.5377 29.9877 41.1571 30.4544 40.6709C30.9205 40.1858 31.2884 39.6216 31.5574 38.9794C31.8264 38.3377 31.961 37.65 31.961 36.9162V25.1975H7.99V22.0065H31.961Z" fill="white"/>
</svg>
