<svg width="96" height="24" viewBox="0 0 96 24" fill="none" xmlns="http://www.w3.org/2000/svg">
    <path d="M8.72157 12.6953H5.45882L7.21569 6.9479L8.72157 12.6953ZM3.76471 19.0111L4.89412 15.2216H9.28627L10.3529 19.0111H14.4314L10.3529 4.61106C10.102 3.79001 9.6 3.3479 8.72157 3.3479H2.94902V4.67422H3.45098C4.07843 4.67422 4.39216 4.92685 4.39216 5.36895C4.39216 5.68474 4.32941 5.93737 4.07843 6.63211L0 18.9479H3.76471V19.0111Z" fill="white"/>
    <path d="M19.1373 19.0111V4.5479C19.1373 3.79001 18.6981 3.3479 17.9451 3.3479H14.3687V4.67422H14.6196C15.2471 4.67422 15.4981 4.92685 15.4981 5.55843V18.9479H19.1373V19.0111Z" fill="white"/>
    <path d="M25.3489 19.0111V4.5479C25.3489 3.79001 24.9097 3.3479 24.1568 3.3479H20.5803V4.67422H20.8313C21.4588 4.67422 21.7097 4.92685 21.7097 5.55843V18.9479H25.3489V19.0111Z" fill="white"/>
    <path d="M31.7491 4.80023C31.7491 3.72655 30.9962 3.09497 29.6785 3.09497C28.3609 3.09497 27.6079 3.72655 27.6079 4.80023C27.6079 5.87392 28.4236 6.5055 29.6785 6.5055C30.9334 6.5055 31.7491 5.87392 31.7491 4.80023ZM31.6864 19.0108V8.46339C31.6864 7.7055 31.2471 7.26339 30.4942 7.26339H26.9805V8.65286H27.1687C27.7962 8.65286 28.0471 8.9055 28.0471 9.53708V19.0108H31.6864Z" fill="white"/>
    <path d="M39.6551 13.3901V15.6638C39.0277 16.2953 38.3375 16.6743 37.71 16.6743C37.0826 16.6743 36.8316 16.3585 36.8316 15.4743C36.8316 14.5901 37.0198 14.2111 37.6473 13.9585C38.0865 13.7059 38.7139 13.5164 39.6551 13.3901ZM34.761 10.6111C35.9532 10.0427 37.2708 9.72693 38.3375 9.72693C39.3414 9.72693 39.6551 10.1059 39.6551 11.1164V11.369C38.1492 11.6217 37.71 11.6848 36.8943 11.8743C36.3924 12.0006 35.9532 12.1269 35.5139 12.3164C34.0708 12.8848 33.3806 14.0217 33.3806 15.7901C33.3806 18.0006 34.3218 19.0743 36.3296 19.0743C37.0198 19.0743 37.71 18.948 38.2747 18.6953C38.7767 18.4427 39.0904 18.2532 39.8434 17.6848V17.8743C39.8434 18.569 40.2198 18.948 40.91 18.948H44.2355V17.6848H44.0473C43.4198 17.6848 43.1688 17.4322 43.1688 16.6743V11.1164C43.1688 8.14798 42.1649 7.13745 39.2159 7.13745C38.2747 7.13745 37.3336 7.26377 36.4551 7.45324C35.5139 7.64271 35.0747 7.83219 34.0081 8.40061L34.761 10.6111Z" fill="white"/>
    <path d="M49.5059 19.0111V11.0532C50.1334 10.3585 50.7608 10.0427 51.451 10.0427C52.204 10.0427 52.3922 10.3585 52.3922 11.4953V18.8848H56.0314V11.0532C56.0314 9.22166 55.9059 8.59008 55.3412 7.95851C54.8393 7.39008 54.0863 7.13745 53.1451 7.13745C51.702 7.13745 50.6981 7.57956 49.3804 8.84271V8.40061C49.3804 7.64271 49.004 7.32693 48.251 7.32693H44.8V8.65324H44.9883C45.6157 8.65324 45.8667 8.90587 45.8667 9.53745V19.0111H49.5059Z" fill="white"/>
    <path d="M66.7606 16.5472H61.6783L66.5097 9.72617V7.32617H58.9175C58.0391 7.32617 57.6626 7.70512 57.6626 8.58933V10.7367H58.9802V10.5472C58.9802 9.9788 59.2312 9.72617 59.8587 9.72617H62.494L57.5999 16.6104V19.0104H66.7606V16.5472Z" fill="white"/>
    <path d="M85.8352 18.6947V5.49474C85.8352 4.42105 85.4587 4.10526 84.4548 4.10526H81.3803V5.55789H81.5685C82.2587 5.55789 82.3842 5.74737 82.3842 6.56842V18.6947H85.8352ZM87.3411 18.6947H90.7293V8.4C90.7293 7.38947 90.3528 7.01053 89.3489 7.01053H87.3411V18.6947ZM80.8783 18.6947V7.01053H78.8705C77.8665 7.01053 77.4901 7.38947 77.4901 8.4V18.6947H80.8783ZM93.992 12C93.992 17.8105 89.8509 22.0421 84.0783 22.0421C78.3685 22.0421 74.1646 17.8105 74.1646 12C74.1646 6.18947 78.3058 1.9579 84.0783 1.9579C89.8509 1.89474 93.992 6.18947 93.992 12ZM95.9999 12C95.9999 5.11579 90.9175 0 84.0783 0C77.2391 0 72.1567 5.11579 72.1567 12C72.1567 18.8842 77.2391 24 84.0783 24C90.9175 23.9368 95.9999 18.8211 95.9999 12Z" fill="white"/>
</svg>
